<svg width="17" height="10" viewBox="0 0 17 10" fill="none" xmlns="http://www.w3.org/2000/svg">
<g clip-path="url(#clip0)">
<path d="M16.9975 0H0.00346565V9.95632H16.9975V0Z" fill="white"/>
<path d="M0.00295067 0.984947V3.76742H4.78061L0.00295067 0.984947Z" fill="#13135F"/>
<path d="M5.46992 3.76741H6.44785L0.00313568 0V0.590967L5.46992 3.76741Z" fill="#FF0000"/>
<path d="M1.88698 0L7.34366 3.3235V0H1.88698Z" fill="#12145B"/>
<path d="M16.9985 8.963V6.20515H12.2706L16.9985 8.963Z" fill="#13135F"/>
<path d="M11.5818 6.20515H10.6034L16.9985 9.95385V9.35698L11.5818 6.20515Z" fill="#FF0000"/>
<path d="M15.1631 9.99719L9.7066 6.67349V9.99719H15.1631Z" fill="#12145B"/>
<path d="M16.9985 1.01021V3.76741L12.2706 3.76407L16.9985 1.01021Z" fill="#13135F"/>
<path d="M9.7076 3.76741H10.8174L16.9985 0H15.8763L9.7076 3.76741Z" fill="#FF0000"/>
<path d="M15.1168 0L9.7076 3.29888V0H15.1168Z" fill="#12145B"/>
<path d="M0.00332642 8.98664V6.20417H4.78098L0.00332642 8.98664Z" fill="#13135F"/>
<path d="M7.34167 6.20368H6.23186L0 10.0001H1.12335L7.34167 6.20368Z" fill="#FF0000"/>
<path d="M1.88469 9.99571L7.34166 6.67201V9.99571H1.88469Z" fill="#12145B"/>
<path d="M9.23651 0H7.79953V9.99719H9.23651V0Z" fill="#FF0000"/>
<path d="M17 4.19843H0.00295067V5.80743H17V4.19843Z" fill="#FF0000"/>
</g>
<defs>
<clipPath id="clip0">
<rect width="17" height="10" fill="white"/>
</clipPath>
</defs>
</svg>
