<svg width="398" height="335" viewBox="0 0 398 335" fill="none" xmlns="http://www.w3.org/2000/svg">
<path d="M1 1C17.0525 1 18 15.9515 18 23.5631V29" stroke="#3F5F67" stroke-width="2"/>
<path d="M1 168C17.0525 168 18 182.951 18 190.563V196" stroke="#3F5F67" stroke-width="2"/>
<path d="M199 1C215.052 1 216 15.9515 216 23.5631V29" stroke="#3F5F67" stroke-width="2"/>
<path d="M199 168C215.052 168 216 182.951 216 190.563V196" stroke="#3F5F67" stroke-width="2"/>
<path d="M1 57C17.0525 57 18 71.4175 18 78.7573V84" stroke="#3F5F67" stroke-width="2"/>
<path d="M1 224C17.0525 224 18 238.417 18 245.757V251" stroke="#3F5F67" stroke-width="2"/>
<path d="M199 57C215.052 57 216 71.4175 216 78.7573V84" stroke="#3F5F67" stroke-width="2"/>
<path d="M199 224C215.052 224 216 238.417 216 245.757V251" stroke="#3F5F67" stroke-width="2"/>
<path d="M51 29V23.7573C51 16.9417 52.4371 2 67.7661 2C83.0952 2 84 16.4175 84 23.7573V29" stroke="#3F5F67" stroke-width="2"/>
<path d="M51 196V190.757C51 183.942 52.4371 169 67.7661 169C83.0952 169 84 183.417 84 190.757V196" stroke="#3F5F67" stroke-width="2"/>
<path d="M249 29V23.7573C249 16.9417 250.437 2 265.766 2C281.095 2 282 16.4175 282 23.7573V29" stroke="#3F5F67" stroke-width="2"/>
<path d="M249 196V190.757C249 183.942 250.437 169 265.766 169C281.095 169 282 183.417 282 190.757V196" stroke="#3F5F67" stroke-width="2"/>
<path d="M51 85V79.5631C51 72.4951 52.4371 57 67.7661 57C83.0952 57 84 71.9515 84 79.5631V85" stroke="#3F5F67" stroke-width="2"/>
<path d="M51 252V246.563C51 239.495 52.4371 224 67.7661 224C83.0952 224 84 238.951 84 246.563V252" stroke="#3F5F67" stroke-width="2"/>
<path d="M249 85V79.5631C249 72.4951 250.437 57 265.766 57C281.095 57 282 71.9515 282 79.5631V85" stroke="#3F5F67" stroke-width="2"/>
<path d="M249 252V246.563C249 239.495 250.437 224 265.766 224C281.095 224 282 238.951 282 246.563V252" stroke="#3F5F67" stroke-width="2"/>
<path d="M1 57V51.5631C1 44.4951 2.43711 29 17.7661 29C33.0952 29 34 43.9515 34 51.5631V57" stroke="#3F5F67" stroke-width="2"/>
<path d="M1 224V218.563C1 211.495 2.43711 196 17.7661 196C33.0952 196 34 210.951 34 218.563V224" stroke="#3F5F67" stroke-width="2"/>
<path d="M199 57V51.5631C199 44.4951 200.437 29 215.766 29C231.095 29 232 43.9515 232 51.5631V57" stroke="#3F5F67" stroke-width="2"/>
<path d="M199 224V218.563C199 211.495 200.437 196 215.766 196C231.095 196 232 210.951 232 218.563V224" stroke="#3F5F67" stroke-width="2"/>
<path d="M1 51V56" stroke="#3F5F67" stroke-width="2"/>
<path d="M1 218V223" stroke="#3F5F67" stroke-width="2"/>
<path d="M199 51V56" stroke="#3F5F67" stroke-width="2"/>
<path d="M199 218V223" stroke="#3F5F67" stroke-width="2"/>
<path d="M1 112V106.757C1 99.9417 2.43711 85 17.7661 85C33.0952 85 34 99.4175 34 106.757V112" stroke="#3F5F67" stroke-width="2"/>
<path d="M1 279V273.757C1 266.942 2.43711 252 17.7661 252C33.0952 252 34 266.417 34 273.757V279" stroke="#3F5F67" stroke-width="2"/>
<path d="M199 112V106.757C199 99.9417 200.437 85 215.766 85C231.095 85 232 99.4175 232 106.757V112" stroke="#3F5F67" stroke-width="2"/>
<path d="M199 279V273.757C199 266.942 200.437 252 215.766 252C231.095 252 232 266.417 232 273.757V279" stroke="#3F5F67" stroke-width="2"/>
<path d="M1 113C17.0525 113 18 127.417 18 134.757V140" stroke="#3F5F67" stroke-width="2"/>
<path d="M1 280C17.0525 280 18 294.417 18 301.757V307" stroke="#3F5F67" stroke-width="2"/>
<path d="M199 113C215.052 113 216 127.417 216 134.757V140" stroke="#3F5F67" stroke-width="2"/>
<path d="M199 280C215.052 280 216 294.417 216 301.757V307" stroke="#3F5F67" stroke-width="2"/>
<path d="M1 167V161.757C1 154.942 2.43711 140 17.7661 140C33.0952 140 34 154.417 34 161.757V167" stroke="#3F5F67" stroke-width="2"/>
<path d="M1 334V328.757C1 321.942 2.43711 307 17.7661 307C33.0952 307 34 321.417 34 328.757V334" stroke="#3F5F67" stroke-width="2"/>
<path d="M199 167V161.757C199 154.942 200.437 140 215.766 140C231.095 140 232 154.417 232 161.757V167" stroke="#3F5F67" stroke-width="2"/>
<path d="M199 334V328.757C199 321.942 200.437 307 215.766 307C231.095 307 232 321.417 232 328.757V334" stroke="#3F5F67" stroke-width="2"/>
<path d="M67 57V51.5631C67 44.4951 68.4371 29 83.7661 29C99.0952 29 100 43.9515 100 51.5631V57" stroke="#3F5F67" stroke-width="2"/>
<path d="M67 224V218.563C67 211.495 68.4371 196 83.7661 196C99.0952 196 100 210.951 100 218.563V224" stroke="#3F5F67" stroke-width="2"/>
<path d="M265 57V51.5631C265 44.4951 266.437 29 281.766 29C297.095 29 298 43.9515 298 51.5631V57" stroke="#3F5F67" stroke-width="2"/>
<path d="M265 224V218.563C265 211.495 266.437 196 281.766 196C297.095 196 298 210.951 298 218.563V224" stroke="#3F5F67" stroke-width="2"/>
<path d="M67 112V106.757C67 99.9417 68.4371 85 83.7661 85C99.0952 85 100 99.4175 100 106.757V112" stroke="#3F5F67" stroke-width="2"/>
<path d="M67 279V273.757C67 266.942 68.4371 252 83.7661 252C99.0952 252 100 266.417 100 273.757V279" stroke="#3F5F67" stroke-width="2"/>
<path d="M265 112V106.757C265 99.9417 266.437 85 281.766 85C297.095 85 298 99.4175 298 106.757V112" stroke="#3F5F67" stroke-width="2"/>
<path d="M265 279V273.757C265 266.942 266.437 252 281.766 252C297.095 252 298 266.417 298 273.757V279" stroke="#3F5F67" stroke-width="2"/>
<path d="M51 140V134.757C51 127.942 52.4371 113 67.7661 113C83.0952 113 84 127.417 84 134.757V140" stroke="#3F5F67" stroke-width="2"/>
<path d="M51 307V301.757C51 294.942 52.4371 280 67.7661 280C83.0952 280 84 294.417 84 301.757V307" stroke="#3F5F67" stroke-width="2"/>
<path d="M249 140V134.757C249 127.942 250.437 113 265.766 113C281.095 113 282 127.417 282 134.757V140" stroke="#3F5F67" stroke-width="2"/>
<path d="M249 307V301.757C249 294.942 250.437 280 265.766 280C281.095 280 282 294.417 282 301.757V307" stroke="#3F5F67" stroke-width="2"/>
<path d="M67 167V161.757C67 154.942 68.4371 140 83.7661 140C99.0952 140 100 154.417 100 161.757V167" stroke="#3F5F67" stroke-width="2"/>
<path d="M67 334V328.757C67 321.942 68.4371 307 83.7661 307C99.0952 307 100 321.417 100 328.757V334" stroke="#3F5F67" stroke-width="2"/>
<path d="M265 167V161.757C265 154.942 266.437 140 281.766 140C297.095 140 298 154.417 298 161.757V167" stroke="#3F5F67" stroke-width="2"/>
<path d="M265 334V328.757C265 321.942 266.437 307 281.766 307C297.095 307 298 321.417 298 328.757V334" stroke="#3F5F67" stroke-width="2"/>
<path d="M18 29V23.5481C18 16.7981 19.4371 2 34.7661 2C50.0952 2 51 16.2788 51 23.5481V29" stroke="#3F5F67" stroke-width="2"/>
<path d="M18 196V190.548C18 183.798 19.4371 169 34.7661 169C50.0952 169 51 183.279 51 190.548V196" stroke="#3F5F67" stroke-width="2"/>
<path d="M216 29V23.5481C216 16.7981 217.437 2 232.766 2C248.095 2 249 16.2788 249 23.5481V29" stroke="#3F5F67" stroke-width="2"/>
<path d="M216 196V190.548C216 183.798 217.437 169 232.766 169C248.095 169 249 183.279 249 190.548V196" stroke="#3F5F67" stroke-width="2"/>
<path d="M18 85V79.3462C18 72.3462 19.4371 57 34.7661 57C50.0952 57 51 71.8077 51 79.3462V85" stroke="#3F5F67" stroke-width="2"/>
<path d="M18 252V246.346C18 239.346 19.4371 224 34.7661 224C50.0952 224 51 238.808 51 246.346V252" stroke="#3F5F67" stroke-width="2"/>
<path d="M216 85V79.3462C216 72.3462 217.437 57 232.766 57C248.095 57 249 71.8077 249 79.3462V85" stroke="#3F5F67" stroke-width="2"/>
<path d="M216 252V246.346C216 239.346 217.437 224 232.766 224C248.095 224 249 238.808 249 246.346V252" stroke="#3F5F67" stroke-width="2"/>
<path d="M84 29V23.5481C84 16.7981 85.4371 2 100.766 2C116.095 2 117 16.2788 117 23.5481V29" stroke="#3F5F67" stroke-width="2"/>
<path d="M84 196V190.548C84 183.798 85.4371 169 100.766 169C116.095 169 117 183.279 117 190.548V196" stroke="#3F5F67" stroke-width="2"/>
<path d="M282 29V23.5481C282 16.7981 283.437 2 298.766 2C314.095 2 315 16.2788 315 23.5481V29" stroke="#3F5F67" stroke-width="2"/>
<path d="M282 196V190.548C282 183.798 283.437 169 298.766 169C314.095 169 315 183.279 315 190.548V196" stroke="#3F5F67" stroke-width="2"/>
<path d="M117 29V23.5481C117 16.7981 118.437 2 133.766 2C149.095 2 150 16.2788 150 23.5481V29" stroke="#3F5F67" stroke-width="2"/>
<path d="M117 196V190.548C117 183.798 118.437 169 133.766 169C149.095 169 150 183.279 150 190.548V196" stroke="#3F5F67" stroke-width="2"/>
<path d="M315 29V23.5481C315 16.7981 316.437 2 331.766 2C347.095 2 348 16.2788 348 23.5481V29" stroke="#3F5F67" stroke-width="2"/>
<path d="M315 196V190.548C315 183.798 316.437 169 331.766 169C347.095 169 348 183.279 348 190.548V196" stroke="#3F5F67" stroke-width="2"/>
<path d="M150 29V23.3462C150 16.3462 151.437 1 166.766 1C182.095 1 183 15.8077 183 23.3462V29" stroke="#3F5F67" stroke-width="2"/>
<path d="M150 196V190.346C150 183.346 151.437 168 166.766 168C182.095 168 183 182.808 183 190.346V196" stroke="#3F5F67" stroke-width="2"/>
<path d="M348 29V23.3462C348 16.3462 349.437 1 364.766 1C380.095 1 381 15.8077 381 23.3462V29" stroke="#3F5F67" stroke-width="2"/>
<path d="M348 196V190.346C348 183.346 349.437 168 364.766 168C380.095 168 381 182.808 381 190.346V196" stroke="#3F5F67" stroke-width="2"/>
<path d="M183 29V23.3462C183 16.3462 184.371 1 199 1" stroke="#3F5F67" stroke-width="2"/>
<path d="M183 196V190.346C183 183.346 184.371 168 199 168" stroke="#3F5F67" stroke-width="2"/>
<path d="M381 29V23.3462C381 16.3462 382.371 1 397 1" stroke="#3F5F67" stroke-width="2"/>
<path d="M381 196V190.346C381 183.346 382.371 168 397 168" stroke="#3F5F67" stroke-width="2"/>
<path d="M84 85V79.3462C84 72.3462 85.4371 57 100.766 57C116.095 57 117 71.8077 117 79.3462V85" stroke="#3F5F67" stroke-width="2"/>
<path d="M84 252V246.346C84 239.346 85.4371 224 100.766 224C116.095 224 117 238.808 117 246.346V252" stroke="#3F5F67" stroke-width="2"/>
<path d="M282 85V79.3462C282 72.3462 283.437 57 298.766 57C314.095 57 315 71.8077 315 79.3462V85" stroke="#3F5F67" stroke-width="2"/>
<path d="M282 252V246.346C282 239.346 283.437 224 298.766 224C314.095 224 315 238.808 315 246.346V252" stroke="#3F5F67" stroke-width="2"/>
<path d="M34 57V51.3462C34 44.3462 35.4371 29 50.7661 29C66.0952 29 67 43.8077 67 51.3462V57" stroke="#3F5F67" stroke-width="2"/>
<path d="M34 224V218.346C34 211.346 35.4371 196 50.7661 196C66.0952 196 67 210.808 67 218.346V224" stroke="#3F5F67" stroke-width="2"/>
<path d="M232 57V51.3462C232 44.3462 233.437 29 248.766 29C264.095 29 265 43.8077 265 51.3462V57" stroke="#3F5F67" stroke-width="2"/>
<path d="M232 224V218.346C232 211.346 233.437 196 248.766 196C264.095 196 265 210.808 265 218.346V224" stroke="#3F5F67" stroke-width="2"/>
<path d="M34 113V107.346C34 100.346 35.4371 85 50.7661 85C66.0952 85 67 99.8077 67 107.346V113" stroke="#3F5F67" stroke-width="2"/>
<path d="M34 280V274.346C34 267.346 35.4371 252 50.7661 252C66.0952 252 67 266.808 67 274.346V280" stroke="#3F5F67" stroke-width="2"/>
<path d="M232 113V107.346C232 100.346 233.437 85 248.766 85C264.095 85 265 99.8077 265 107.346V113" stroke="#3F5F67" stroke-width="2"/>
<path d="M232 280V274.346C232 267.346 233.437 252 248.766 252C264.095 252 265 266.808 265 274.346V280" stroke="#3F5F67" stroke-width="2"/>
<path d="M18 141V135.346C18 128.346 19.4371 113 34.7661 113C50.0952 113 51 127.808 51 135.346V141" stroke="#3F5F67" stroke-width="2"/>
<path d="M18 308V302.346C18 295.346 19.4371 280 34.7661 280C50.0952 280 51 294.808 51 302.346V308" stroke="#3F5F67" stroke-width="2"/>
<path d="M216 141V135.346C216 128.346 217.437 113 232.766 113C248.095 113 249 127.808 249 135.346V141" stroke="#3F5F67" stroke-width="2"/>
<path d="M216 308V302.346C216 295.346 217.437 280 232.766 280C248.095 280 249 294.808 249 302.346V308" stroke="#3F5F67" stroke-width="2"/>
<path d="M34 168V162.346C34 155.346 35.4371 140 50.7661 140C66.0952 140 67 154.808 67 162.346V168" stroke="#3F5F67" stroke-width="2"/>
<path d="M34 335V329.346C34 322.346 35.4371 307 50.7661 307C66.0952 307 67 321.808 67 329.346V335" stroke="#3F5F67" stroke-width="2"/>
<path d="M232 168V162.346C232 155.346 233.437 140 248.766 140C264.095 140 265 154.808 265 162.346V168" stroke="#3F5F67" stroke-width="2"/>
<path d="M232 335V329.346C232 322.346 233.437 307 248.766 307C264.095 307 265 321.808 265 329.346V335" stroke="#3F5F67" stroke-width="2"/>
<path d="M100 57V51.3462C100 44.3462 101.437 29 116.766 29C132.095 29 133 43.8077 133 51.3462V57" stroke="#3F5F67" stroke-width="2"/>
<path d="M100 224V218.346C100 211.346 101.437 196 116.766 196C132.095 196 133 210.808 133 218.346V224" stroke="#3F5F67" stroke-width="2"/>
<path d="M298 57V51.3462C298 44.3462 299.437 29 314.766 29C330.095 29 331 43.8077 331 51.3462V57" stroke="#3F5F67" stroke-width="2"/>
<path d="M298 224V218.346C298 211.346 299.437 196 314.766 196C330.095 196 331 210.808 331 218.346V224" stroke="#3F5F67" stroke-width="2"/>
<path d="M133 56V50.5481C133 43.7981 134.437 29 149.766 29C165.095 29 166 43.2788 166 50.5481V56" stroke="#3F5F67" stroke-width="2"/>
<path d="M133 223V217.548C133 210.798 134.437 196 149.766 196C165.095 196 166 210.279 166 217.548V223" stroke="#3F5F67" stroke-width="2"/>
<path d="M331 56V50.5481C331 43.7981 332.437 29 347.766 29C363.095 29 364 43.2788 364 50.5481V56" stroke="#3F5F67" stroke-width="2"/>
<path d="M331 223V217.548C331 210.798 332.437 196 347.766 196C363.095 196 364 210.279 364 217.548V223" stroke="#3F5F67" stroke-width="2"/>
<path d="M166 56V50.5481C166 43.7981 167.437 29 182.766 29C198.095 29 199 43.2788 199 50.5481V56" stroke="#3F5F67" stroke-width="2"/>
<path d="M166 223V217.548C166 210.798 167.437 196 182.766 196C198.095 196 199 210.279 199 217.548V223" stroke="#3F5F67" stroke-width="2"/>
<path d="M364 56V50.5481C364 43.7981 365.437 29 380.766 29C396.095 29 397 43.2788 397 50.5481V56" stroke="#3F5F67" stroke-width="2"/>
<path d="M364 223V217.548C364 210.798 365.437 196 380.766 196C396.095 196 397 210.279 397 217.548V223" stroke="#3F5F67" stroke-width="2"/>
<path d="M117 85V79.3462C117 72.3462 118.437 57 133.766 57C149.095 57 150 71.8077 150 79.3462V85" stroke="#3F5F67" stroke-width="2"/>
<path d="M117 252V246.346C117 239.346 118.437 224 133.766 224C149.095 224 150 238.808 150 246.346V252" stroke="#3F5F67" stroke-width="2"/>
<path d="M315 85V79.3462C315 72.3462 316.437 57 331.766 57C347.095 57 348 71.8077 348 79.3462V85" stroke="#3F5F67" stroke-width="2"/>
<path d="M315 252V246.346C315 239.346 316.437 224 331.766 224C347.095 224 348 238.808 348 246.346V252" stroke="#3F5F67" stroke-width="2"/>
<path d="M150 85V79.3462C150 72.3462 151.437 57 166.766 57C182.095 57 183 71.8077 183 79.3462V85" stroke="#3F5F67" stroke-width="2"/>
<path d="M150 252V246.346C150 239.346 151.437 224 166.766 224C182.095 224 183 238.808 183 246.346V252" stroke="#3F5F67" stroke-width="2"/>
<path d="M348 85V79.3462C348 72.3462 349.437 57 364.766 57C380.095 57 381 71.8077 381 79.3462V85" stroke="#3F5F67" stroke-width="2"/>
<path d="M348 252V246.346C348 239.346 349.437 224 364.766 224C380.095 224 381 238.808 381 246.346V252" stroke="#3F5F67" stroke-width="2"/>
<path d="M183 85V79.3462C183 72.3462 184.371 57 199 57" stroke="#3F5F67" stroke-width="2"/>
<path d="M183 252V246.346C183 239.346 184.371 224 199 224" stroke="#3F5F67" stroke-width="2"/>
<path d="M381 85V79.3462C381 72.3462 382.371 57 397 57" stroke="#3F5F67" stroke-width="2"/>
<path d="M381 252V246.346C381 239.346 382.371 224 397 224" stroke="#3F5F67" stroke-width="2"/>
<path d="M133 113V107.346C133 100.346 134.437 85 149.766 85C165.095 85 166 99.8077 166 107.346V113" stroke="#3F5F67" stroke-width="2"/>
<path d="M133 280V274.346C133 267.346 134.437 252 149.766 252C165.095 252 166 266.808 166 274.346V280" stroke="#3F5F67" stroke-width="2"/>
<path d="M331 113V107.346C331 100.346 332.437 85 347.766 85C363.095 85 364 99.8077 364 107.346V113" stroke="#3F5F67" stroke-width="2"/>
<path d="M331 280V274.346C331 267.346 332.437 252 347.766 252C363.095 252 364 266.808 364 274.346V280" stroke="#3F5F67" stroke-width="2"/>
<path d="M117 141V135.346C117 128.346 118.437 113 133.766 113C149.095 113 150 127.808 150 135.346V141" stroke="#3F5F67" stroke-width="2"/>
<path d="M117 308V302.346C117 295.346 118.437 280 133.766 280C149.095 280 150 294.808 150 302.346V308" stroke="#3F5F67" stroke-width="2"/>
<path d="M315 141V135.346C315 128.346 316.437 113 331.766 113C347.095 113 348 127.808 348 135.346V141" stroke="#3F5F67" stroke-width="2"/>
<path d="M315 308V302.346C315 295.346 316.437 280 331.766 280C347.095 280 348 294.808 348 302.346V308" stroke="#3F5F67" stroke-width="2"/>
<path d="M133 168V162.346C133 155.346 134.437 140 149.766 140C165.095 140 166 154.808 166 162.346V168" stroke="#3F5F67" stroke-width="2"/>
<path d="M133 335V329.346C133 322.346 134.437 307 149.766 307C165.095 307 166 321.808 166 329.346V335" stroke="#3F5F67" stroke-width="2"/>
<path d="M331 168V162.346C331 155.346 332.437 140 347.766 140C363.095 140 364 154.808 364 162.346V168" stroke="#3F5F67" stroke-width="2"/>
<path d="M331 335V329.346C331 322.346 332.437 307 347.766 307C363.095 307 364 321.808 364 329.346V335" stroke="#3F5F67" stroke-width="2"/>
<path d="M166 113V107.346C166 100.346 167.437 85 182.766 85C198.095 85 199 99.8077 199 107.346V113" stroke="#3F5F67" stroke-width="2"/>
<path d="M166 280V274.346C166 267.346 167.437 252 182.766 252C198.095 252 199 266.808 199 274.346V280" stroke="#3F5F67" stroke-width="2"/>
<path d="M364 113V107.346C364 100.346 365.437 85 380.766 85C396.095 85 397 99.8077 397 107.346V113" stroke="#3F5F67" stroke-width="2"/>
<path d="M364 280V274.346C364 267.346 365.437 252 380.766 252C396.095 252 397 266.808 397 274.346V280" stroke="#3F5F67" stroke-width="2"/>
<path d="M150 141V135.346C150 128.346 151.437 113 166.766 113C182.095 113 183 127.808 183 135.346V141" stroke="#3F5F67" stroke-width="2"/>
<path d="M150 308V302.346C150 295.346 151.437 280 166.766 280C182.095 280 183 294.808 183 302.346V308" stroke="#3F5F67" stroke-width="2"/>
<path d="M348 141V135.346C348 128.346 349.437 113 364.766 113C380.095 113 381 127.808 381 135.346V141" stroke="#3F5F67" stroke-width="2"/>
<path d="M348 308V302.346C348 295.346 349.437 280 364.766 280C380.095 280 381 294.808 381 302.346V308" stroke="#3F5F67" stroke-width="2"/>
<path d="M166 168V162.346C166 155.346 167.437 140 182.766 140C198.095 140 199 154.808 199 162.346V168" stroke="#3F5F67" stroke-width="2"/>
<path d="M166 335V329.346C166 322.346 167.437 307 182.766 307C198.095 307 199 321.808 199 329.346V335" stroke="#3F5F67" stroke-width="2"/>
<path d="M364 168V162.346C364 155.346 365.437 140 380.766 140C396.095 140 397 154.808 397 162.346V168" stroke="#3F5F67" stroke-width="2"/>
<path d="M364 335V329.346C364 322.346 365.437 307 380.766 307C396.095 307 397 321.808 397 329.346V335" stroke="#3F5F67" stroke-width="2"/>
<path d="M199 113V107" stroke="#3F5F67" stroke-width="2"/>
<path d="M199 280V274" stroke="#3F5F67" stroke-width="2"/>
<path d="M397 113V107" stroke="#3F5F67" stroke-width="2"/>
<path d="M397 280V274" stroke="#3F5F67" stroke-width="2"/>
<path d="M183 141V135.346C183 128.346 184.371 113 199 113" stroke="#3F5F67" stroke-width="2"/>
<path d="M183 308V302.346C183 295.346 184.371 280 199 280" stroke="#3F5F67" stroke-width="2"/>
<path d="M381 141V135.346C381 128.346 382.371 113 397 113" stroke="#3F5F67" stroke-width="2"/>
<path d="M381 308V302.346C381 295.346 382.371 280 397 280" stroke="#3F5F67" stroke-width="2"/>
<path d="M199 168V162" stroke="#3F5F67" stroke-width="2"/>
<path d="M199 335V329" stroke="#3F5F67" stroke-width="2"/>
<path d="M397 168V162" stroke="#3F5F67" stroke-width="2"/>
<path d="M397 335V329" stroke="#3F5F67" stroke-width="2"/>
<path d="M100 113V107.346C100 100.346 101.437 85 116.766 85C132.095 85 133 99.8077 133 107.346V113" stroke="#3F5F67" stroke-width="2"/>
<path d="M100 280V274.346C100 267.346 101.437 252 116.766 252C132.095 252 133 266.808 133 274.346V280" stroke="#3F5F67" stroke-width="2"/>
<path d="M298 113V107.346C298 100.346 299.437 85 314.766 85C330.095 85 331 99.8077 331 107.346V113" stroke="#3F5F67" stroke-width="2"/>
<path d="M298 280V274.346C298 267.346 299.437 252 314.766 252C330.095 252 331 266.808 331 274.346V280" stroke="#3F5F67" stroke-width="2"/>
<path d="M84 141V135.346C84 128.346 85.4371 113 100.766 113C116.095 113 117 127.808 117 135.346V141" stroke="#3F5F67" stroke-width="2"/>
<path d="M84 308V302.346C84 295.346 85.4371 280 100.766 280C116.095 280 117 294.808 117 302.346V308" stroke="#3F5F67" stroke-width="2"/>
<path d="M282 141V135.346C282 128.346 283.437 113 298.766 113C314.095 113 315 127.808 315 135.346V141" stroke="#3F5F67" stroke-width="2"/>
<path d="M282 308V302.346C282 295.346 283.437 280 298.766 280C314.095 280 315 294.808 315 302.346V308" stroke="#3F5F67" stroke-width="2"/>
<path d="M100 168V162.346C100 155.346 101.437 140 116.766 140C132.095 140 133 154.808 133 162.346V168" stroke="#3F5F67" stroke-width="2"/>
<path d="M100 335V329.346C100 322.346 101.437 307 116.766 307C132.095 307 133 321.808 133 329.346V335" stroke="#3F5F67" stroke-width="2"/>
<path d="M298 168V162.346C298 155.346 299.437 140 314.766 140C330.095 140 331 154.808 331 162.346V168" stroke="#3F5F67" stroke-width="2"/>
<path d="M298 335V329.346C298 322.346 299.437 307 314.766 307C330.095 307 331 321.808 331 329.346V335" stroke="#3F5F67" stroke-width="2"/>
</svg>
